<svg width="40" height="40" viewBox="0 0 40 40" fill="none" xmlns="http://www.w3.org/2000/svg">
<path d="M0 8C0 3.58172 3.58172 0 8 0H32C36.4183 0 40 3.58172 40 8V32C40 36.4183 36.4183 40 32 40H8C3.58172 40 0 36.4183 0 32V8Z" fill="#0077B5"/>
<path d="M15.5734 13.5919C15.5734 13.8552 15.5215 14.116 15.4207 14.3593C15.3199 14.6026 15.1722 14.8237 14.986 15.0099C14.7998 15.1961 14.5787 15.3439 14.3354 15.4446C14.0921 15.5454 13.8313 15.5973 13.5679 15.5973C13.3046 15.5973 13.0438 15.5454 12.8005 15.4446C12.5572 15.3439 12.3361 15.1961 12.1499 15.0099C11.9637 14.8237 11.8159 14.6026 11.7152 14.3593C11.6144 14.116 11.5625 13.8552 11.5625 13.5919C11.5625 13.06 11.7738 12.5499 12.1499 12.1738C12.526 11.7977 13.0361 11.5864 13.5679 11.5864C14.0998 11.5864 14.6099 11.7977 14.986 12.1738C15.3621 12.5499 15.5734 13.06 15.5734 13.5919ZM17.4674 17.1174V28.2445H20.9221V22.7418C20.9221 21.2898 21.1958 19.8839 22.9956 19.8839C24.7714 19.8839 24.7934 21.5435 24.7934 22.8332V28.2452H28.2502V22.143C28.2502 19.1455 27.6046 16.8424 24.1011 16.8424C22.4195 16.8424 21.292 17.765 20.8307 18.6388H20.7839V17.1174H17.4674ZM11.8368 17.1174H15.2977V28.2445H11.8375L11.8368 17.1174Z" fill="#F7F7F7"/>
</svg>
