<svg width="40" height="40" viewBox="0 0 40 40" fill="none" xmlns="http://www.w3.org/2000/svg">
<path d="M0 8C0 3.58172 3.58172 0 8 0H32C36.4183 0 40 3.58172 40 8V32C40 36.4183 36.4183 40 32 40H8C3.58172 40 0 36.4183 0 32V8Z" fill="#1778F2"/>
<path d="M21.281 28.2474V20.7344H23.8151L24.1919 17.7926H21.281V15.9192C21.281 15.0701 21.5175 14.4892 22.7358 14.4892H24.2792V11.8664C23.528 11.7859 22.7728 11.7471 22.0173 11.7502C19.7774 11.7502 18.2395 13.1183 18.2395 15.6284V17.7871H15.7212V20.7289H18.2443V28.2474H21.281Z" fill="#F7F7F7"/>
</svg>
